<svg width="82" height="68" viewBox="0 0 82 68" fill="none" xmlns="http://www.w3.org/2000/svg">
<path d="M36.0386 12.2806C40.8012 9.48919 46.3881 8.39421 51.8687 9.1781C52.3222 7.5353 53.1051 5.99922 54.1708 4.66094C55.2366 3.32267 56.5635 2.20946 58.0729 1.38735C53.0596 -0.0925599 47.7654 -0.393489 42.6134 0.508605C37.4613 1.4107 32.5943 3.49081 28.4012 6.58271C31.3205 7.93646 33.9217 9.87713 36.0386 12.2806Z" fill="#02A3F1"/>
<path d="M42.9374 56.3242C37.4467 55.0644 32.57 51.9583 29.1421 47.5375C26.1865 49.035 22.9373 49.8814 19.6185 50.0182C22.5097 54.8396 26.5925 58.8569 31.4844 61.6937C36.3763 64.5305 41.9171 66.094 47.5876 66.2376C45.0234 63.4968 43.3966 60.0288 42.9374 56.3242Z" fill="#F25123"/>
<path d="M71.7055 39.8409C74.7038 42.0613 76.9302 45.1469 78.077 48.6712C80.8589 43.5028 82.2039 37.6981 81.9749 31.8488C81.746 25.9995 79.9514 20.3148 76.7739 15.374C76.3786 17.053 75.6416 18.635 74.6077 20.0237C73.5738 21.4123 72.2647 22.5786 70.7601 23.4516C73.009 28.6342 73.3436 34.4325 71.7055 39.834V39.8409Z" fill="#7FBA00"/>
<path d="M56.2146 16.8908L42.6215 32.3392L36.2546 32.8877C35.7256 34.4097 34.9962 35.8564 34.0851 37.1904L44.9327 36.2541L44.9814 36.1968L59.1507 20.0943C57.9269 19.2737 56.92 18.1752 56.2146 16.8908Z" fill="white"/>
<path d="M63.4386 40.6004L65.4502 21.68C65.065 21.7301 64.6772 21.7569 64.2888 21.7603C63.1838 21.758 62.0884 21.5582 61.0554 21.1706L59.002 40.4031C60.479 40.2363 61.9735 40.3029 63.4293 40.6004H63.4386Z" fill="white"/>
<path d="M64.3446 3.51917C62.5245 3.52053 60.7457 4.05488 59.233 5.05468C57.7202 6.05449 56.5414 7.47487 55.8456 9.13634C55.1497 10.7978 54.968 12.6258 55.3234 14.3892C55.6788 16.1527 56.5554 17.7725 57.8424 19.0439C59.1293 20.3153 60.7689 21.1813 62.554 21.5325C64.339 21.8836 66.1893 21.7041 67.871 21.0166C69.5528 20.3291 70.9906 19.1646 72.0026 17.6701C73.0146 16.1756 73.5555 14.4183 73.5569 12.6202C73.5578 11.4248 73.3201 10.2409 72.8575 9.13634C72.3949 8.03174 71.7163 7.02808 70.8607 6.18279C70.0051 5.3375 68.9892 4.66715 67.871 4.2101C66.7529 3.75305 65.5546 3.51826 64.3446 3.51917ZM64.4235 17.2511C63.5015 17.2511 62.6002 16.981 61.8335 16.4749C61.0669 15.9688 60.4693 15.2495 60.1165 14.408C59.7636 13.5664 59.6713 12.6404 59.8512 11.747C60.0311 10.8536 60.4751 10.0329 61.1271 9.38882C61.7791 8.74471 62.6097 8.30607 63.514 8.12837C64.4184 7.95066 65.3557 8.04186 66.2076 8.39045C67.0594 8.73904 67.7875 9.32935 68.2998 10.0867C68.812 10.8441 69.0854 11.7346 69.0854 12.6455C69.0861 13.8656 68.5964 15.036 67.724 15.8996C66.8516 16.7632 65.6678 17.2493 64.4328 17.2511H64.4235Z" fill="white"/>
<path d="M60.6512 40.2608C57.8744 40.2603 55.1599 41.0734 52.8509 42.5971C50.5418 44.1208 48.742 46.2868 47.6791 48.8211C46.6161 51.3554 46.3378 54.1442 46.8792 56.8348C47.4207 59.5254 48.7576 61.9969 50.7209 63.9369C52.6842 65.8768 55.1857 67.198 57.9091 67.7333C60.6325 68.2687 63.4554 67.9941 66.0209 66.9444C68.5864 65.8947 70.7791 64.117 72.3218 61.8361C73.8646 59.5553 74.688 56.8736 74.688 54.1304C74.688 50.4523 73.2092 46.9249 70.5769 44.3239C67.9445 41.7229 64.3742 40.2614 60.6512 40.2608ZM60.7743 61.2006C59.3684 61.201 57.994 60.7896 56.8248 60.0183C55.6556 59.2469 54.7442 58.1504 54.2059 56.8674C53.6675 55.5843 53.5265 54.1723 53.8005 52.81C54.0744 51.4478 54.7512 50.1963 55.7452 49.2141C56.7391 48.2318 58.0056 47.5628 59.3845 47.2917C60.7633 47.0205 62.1926 47.1594 63.4915 47.6909C64.7904 48.2223 65.9007 49.1223 66.6818 50.2771C67.4629 51.4319 67.8798 52.7896 67.8798 54.1786C67.8798 56.0405 67.1313 57.8262 65.7988 59.1431C64.4663 60.4599 62.659 61.2 60.7743 61.2006Z" fill="white"/>
<path d="M18.6198 8.55389C14.9375 8.55344 11.3378 9.63176 8.2759 11.6525C5.21397 13.6732 2.82737 16.5456 1.4179 19.9064C0.00843821 23.2671 -0.36058 26.9653 0.357515 30.5333C1.07561 34.1013 2.84857 37.3787 5.45217 39.9512C8.05577 42.5237 11.3731 44.2757 14.9846 44.9855C18.5961 45.6954 22.3395 45.3313 25.7415 43.9393C29.1436 42.5472 32.0514 40.1898 34.0972 37.1651C36.143 34.1404 37.2349 30.5843 37.2349 26.9465C37.2352 24.5313 36.754 22.1396 35.8186 19.9081C34.8833 17.6766 33.5121 15.649 31.7835 13.9411C30.0549 12.2332 28.0027 10.8783 25.7441 9.95399C23.4854 9.02965 21.0646 8.55389 18.6198 8.55389ZM18.7801 36.3206C16.9158 36.3206 15.0934 35.7745 13.5433 34.7513C11.9932 33.728 10.785 32.2737 10.0716 30.5721C9.35816 28.8705 9.17149 26.9981 9.5352 25.1917C9.8989 23.3853 10.7966 21.7261 12.1149 20.4237C13.4332 19.1214 15.1127 18.2345 16.9412 17.8752C18.7696 17.5159 20.6649 17.7003 22.3873 18.4051C24.1097 19.1099 25.5818 20.3035 26.6175 21.8349C27.6533 23.3663 28.2061 25.1667 28.2061 27.0085C28.2064 28.2315 27.9628 29.4427 27.4893 30.5728C27.0157 31.7028 26.3214 32.7297 25.4461 33.5946C24.5708 34.4596 23.5316 35.1457 22.3878 35.6139C21.244 36.082 20.0181 36.3229 18.7801 36.3229V36.3206Z" fill="white"/>
</svg>
