<svg width="641" height="539" viewBox="0 0 641 539" fill="none" xmlns="http://www.w3.org/2000/svg">
<g filter="url(#filter0_i_2_79)">
<path fill-rule="evenodd" clip-rule="evenodd" d="M477.098 25.6546C489.283 17.5055 503.61 13.1502 518.27 13.1391C528.016 13.1317 537.668 15.0454 546.674 18.7707C555.68 22.496 563.863 27.9598 570.755 34.8495C577.646 41.7392 583.112 49.9197 586.838 58.923C590.565 67.9262 592.479 77.5756 592.471 87.3192C592.46 101.975 588.104 116.298 579.952 128.479C571.801 140.66 560.22 150.152 546.674 155.755C540.347 158.373 533.724 160.087 526.997 160.878L510.761 314.82C532.464 319.176 552.586 329.845 568.469 345.726C589.672 366.926 601.583 395.677 601.583 425.656C601.583 448.015 594.95 469.873 582.524 488.463C570.098 507.054 552.436 521.544 531.772 530.1C511.109 538.655 488.371 540.893 466.435 536.529C444.499 532.166 424.351 521.397 408.537 505.586C392.723 489.774 381.955 469.629 377.594 447.699C373.233 425.769 375.475 403.038 384.036 382.382C392.598 361.726 407.094 344.071 425.693 331.652C440.521 321.75 457.425 315.53 475.004 313.417L491.631 156.416C486.137 154.297 480.916 151.531 476.079 148.177L362.307 279.484L361.914 279.952L274.665 287.338C274.656 287.351 274.648 287.364 274.639 287.377C258.161 312.031 234.74 331.245 207.338 342.591C179.936 353.937 149.783 356.905 120.694 351.119C91.6051 345.333 64.8856 331.053 43.9146 310.086C22.9436 289.118 8.66313 262.405 2.87915 233.323C-2.90482 204.242 0.0674748 174.099 11.4202 146.706C22.7729 119.314 41.996 95.9019 66.6586 79.4316C91.3213 62.9612 120.316 54.1722 149.975 54.1759C169.667 54.1759 189.165 58.0536 207.358 65.5877C225.55 73.1217 242.08 84.1645 256.003 98.0854C269.926 112.006 280.97 128.533 288.504 146.721C296.038 164.909 299.915 184.402 299.912 204.088C299.912 220.57 297.195 236.846 291.951 252.287L343.298 248.043L452.698 121.757C449.404 115.493 447.005 108.755 445.608 101.738C442.745 87.3643 444.209 72.4651 449.814 58.923C455.419 45.3809 464.913 33.8037 477.098 25.6546ZM498.044 118.737C504.219 122.862 511.479 125.064 518.906 125.064H518.981C528.928 125.049 538.463 121.087 545.49 114.048C552.516 107.009 556.461 97.4694 556.456 87.5249C556.456 80.1004 554.253 72.8427 550.128 66.6694C546.001 60.4962 540.137 55.6847 533.276 52.8435C526.414 50.0023 518.864 49.2589 511.58 50.7073C504.296 52.1558 497.606 55.731 492.354 60.9809C487.103 66.2308 483.526 72.9196 482.078 80.2015C480.629 87.4833 481.372 95.0311 484.214 101.89C487.056 108.75 491.869 114.613 498.044 118.737ZM489.513 483.283C478.189 483.287 467.119 479.933 457.701 473.646C448.284 467.36 440.943 458.422 436.607 447.964C432.271 437.507 431.135 425.998 433.341 414.894C435.548 403.791 441 393.591 449.005 385.585C457.011 377.578 467.212 372.126 478.319 369.916C489.425 367.706 500.937 368.838 511.399 373.169C521.861 377.501 530.804 384.837 537.096 394.249C543.387 403.662 546.745 414.728 546.745 426.049C546.745 441.225 540.716 455.78 529.984 466.513C519.251 477.246 504.694 483.278 489.513 483.283ZM109.085 267.703C121.571 276.043 136.25 280.494 151.266 280.494V280.513C161.238 280.513 171.112 278.549 180.325 274.734C189.537 270.918 197.908 265.326 204.958 258.276C212.008 251.225 217.6 242.856 221.415 233.645C225.229 224.434 227.191 214.562 227.189 204.593C227.189 189.582 222.736 174.907 214.393 162.425C206.051 149.943 194.193 140.215 180.32 134.47C166.447 128.725 151.182 127.222 136.454 130.151C121.726 133.08 108.198 140.309 97.5802 150.923C86.9622 161.538 79.7313 175.063 76.8018 189.786C73.8723 204.509 75.3758 219.77 81.1222 233.639C86.8687 247.508 96.5999 259.363 109.085 267.703Z" fill="white"/>
</g>
<path d="M293.3 93.8507C329.303 72.518 371.537 64.15 412.967 70.1406C416.396 57.5861 422.314 45.847 430.37 35.6197C438.427 25.3924 448.458 16.8851 459.868 10.6023C421.97 -0.707359 381.949 -3.00711 343.002 3.88685C304.055 10.7808 267.263 26.6773 235.565 50.3062C257.634 60.6518 277.298 75.4827 293.3 93.8507Z" fill="#02A3F1"/>
<path d="M344.986 426.974C303.532 417.427 266.713 393.888 240.833 360.387C218.519 371.735 193.987 378.149 168.931 379.186C190.759 415.723 221.584 446.168 258.517 467.666C295.451 489.164 337.283 501.013 380.095 502.101C360.735 481.33 348.453 455.049 344.986 426.974Z" fill="#F25123"/>
<path d="M563.639 301.882C586.171 318.717 602.901 342.112 611.52 368.833C632.425 329.646 642.532 285.636 640.812 241.286C639.092 196.937 625.605 153.836 601.727 116.375C598.756 129.105 593.218 141.1 585.448 151.628C577.679 162.157 567.841 171 556.534 177.619C573.434 216.913 575.949 260.876 563.639 301.83V301.882Z" fill="#7FBA00"/>
<defs>
<filter id="filter0_i_2_79" x="0" y="13.1391" width="605.958" height="530.859" filterUnits="userSpaceOnUse" color-interpolation-filters="sRGB">
<feFlood flood-opacity="0" result="BackgroundImageFix"/>
<feBlend mode="normal" in="SourceGraphic" in2="BackgroundImageFix" result="shape"/>
<feColorMatrix in="SourceAlpha" type="matrix" values="0 0 0 0 0 0 0 0 0 0 0 0 0 0 0 0 0 0 127 0" result="hardAlpha"/>
<feOffset dx="4.375" dy="5.29551"/>
<feGaussianBlur stdDeviation="13.125"/>
<feComposite in2="hardAlpha" operator="arithmetic" k2="-1" k3="1"/>
<feColorMatrix type="matrix" values="0 0 0 0 0 0 0 0 0 0 0 0 0 0 0 0 0 0 0.41 0"/>
<feBlend mode="normal" in2="shape" result="effect1_innerShadow_2_79"/>
</filter>
</defs>
</svg>
